<svg width="50" height="50" viewBox="0 0 50 50" fill="none" xmlns="http://www.w3.org/2000/svg">
<g filter="url(#filter0_d_420_3634)">
<path d="M24.6003 12.9336V15.2669M24.6003 33.9336V36.2669M16.3169 16.3169L17.9503 17.9503M31.2503 31.2503L32.8836 32.8836M12.9336 24.6003H15.2669M33.9336 24.6003H36.2669M17.9503 31.2503L16.3169 32.8836M32.8836 16.3169L31.2503 17.9503M24.6003 29.2669C25.8379 29.2669 27.0249 28.7753 27.9001 27.9001C28.7753 27.0249 29.2669 25.8379 29.2669 24.6003C29.2669 23.3626 28.7753 22.1756 27.9001 21.3004C27.0249 20.4253 25.8379 19.9336 24.6003 19.9336C23.3626 19.9336 22.1756 20.4253 21.3004 21.3004C20.4253 22.1756 19.9336 23.3626 19.9336 24.6003C19.9336 25.8379 20.4253 27.0249 21.3004 27.9001C22.1756 28.7753 23.3626 29.2669 24.6003 29.2669Z" stroke="#E5C982" stroke-width="1.86667" stroke-linecap="round" stroke-linejoin="round"/>
</g>
<defs>
<filter id="filter0_d_420_3634" x="-1.39844" y="-1.39844" width="52" height="52" filterUnits="userSpaceOnUse" color-interpolation-filters="sRGB">
<feFlood flood-opacity="0" result="BackgroundImageFix"/>
<feColorMatrix in="SourceAlpha" type="matrix" values="0 0 0 0 0 0 0 0 0 0 0 0 0 0 0 0 0 0 127 0" result="hardAlpha"/>
<feOffset/>
<feGaussianBlur stdDeviation="6"/>
<feColorMatrix type="matrix" values="0 0 0 0 0.788235 0 0 0 0 0.639216 0 0 0 0 0.290196 0 0 0 0.9 0"/>
<feBlend mode="normal" in2="BackgroundImageFix" result="effect1_dropShadow_420_3634"/>
<feBlend mode="normal" in="SourceGraphic" in2="effect1_dropShadow_420_3634" result="shape"/>
</filter>
</defs>
</svg>
