<svg width="22" height="22" viewBox="0 0 22 22" fill="none" xmlns="http://www.w3.org/2000/svg">
<path d="M1.83203 6.41797C3.66536 6.41797 3.66536 7.79297 5.4987 7.79297C7.33203 7.79297 7.33203 6.41797 9.16536 6.41797C10.9987 6.41797 10.9987 7.79297 12.832 7.79297C14.6654 7.79297 14.6654 6.41797 16.4987 6.41797C18.332 6.41797 18.332 7.79297 20.1654 7.79297M1.83203 11.0013C3.66536 11.0013 3.66536 12.3763 5.4987 12.3763C7.33203 12.3763 7.33203 11.0013 9.16536 11.0013C10.9987 11.0013 10.9987 12.3763 12.832 12.3763C14.6654 12.3763 14.6654 11.0013 16.4987 11.0013C18.332 11.0013 18.332 12.3763 20.1654 12.3763M1.83203 15.5846C3.66536 15.5846 3.66536 16.9596 5.4987 16.9596C7.33203 16.9596 7.33203 15.5846 9.16536 15.5846C10.9987 15.5846 10.9987 16.9596 12.832 16.9596C14.6654 16.9596 14.6654 15.5846 16.4987 15.5846C18.332 15.5846 18.332 16.9596 20.1654 16.9596" stroke="#E5C982" stroke-width="1.46667" stroke-linecap="round" stroke-linejoin="round"/>
</svg>
